<?xml version="1.0" encoding="utf-8"?>
<!-- Generator: Adobe Illustrator 24.1.2, SVG Export Plug-In . SVG Version: 6.00 Build 0)  -->
<svg version="1.1" id="Layer_1" 
  xmlns="http://www.w3.org/2000/svg" 
  xmlns:xlink="http://www.w3.org/1999/xlink" x="0px" y="0px" viewBox="0 0 100 100" xml:space="preserve">
  <style>
	path {
		fill: #00a6ff;
	}
  </style>
  <g>
    <g>
      <path d="M53.5,43.5c0,5.8-1.1,10.6-3.4,14.6c-2.2,4-5.3,6.9-9.1,9c-3.8,2-8.1,3-12.7,3c-4.7,0-9-1-12.8-3.1c-3.8-2-6.8-5-9-9
			c-2.2-4-3.3-8.8-3.3-14.5c0-5.8,1.1-10.6,3.3-14.6c2.2-4,5.2-6.9,9-9c3.8-2,8.1-3,12.8-3c4.7,0,8.9,1,12.7,3s6.8,5,9.1,9
			C52.4,32.9,53.5,37.7,53.5,43.5z M39,43.5c0-3.1-0.4-5.7-1.2-7.8s-2-3.7-3.6-4.9c-1.6-1.1-3.6-1.7-5.9-1.7c-2.3,0-4.3,0.6-5.9,1.7
			c-1.6,1.1-2.8,2.7-3.6,4.9c-0.8,2.1-1.2,4.7-1.2,7.8s0.4,5.7,1.2,7.8c0.8,2.1,2,3.8,3.6,4.9c1.6,1.1,3.6,1.7,5.9,1.7
			c2.3,0,4.3-0.6,5.9-1.7c1.6-1.1,2.8-2.7,3.6-4.9S39,46.6,39,43.5z M23.4,50.2h10.9l3.9,5l6.7,7.6l8.7,10.5H41.2L35,66l-4.1-6
			L23.4,50.2z"/>
      <path d="M78.9,70.1c-4.1,0-7.7-0.8-10.7-2.4c-3-1.6-5.3-3.9-6.9-6.9s-2.4-6.6-2.4-10.8c0-4,0.8-7.5,2.4-10.5c1.6-3,3.9-5.3,6.9-7
			S74.6,30,78.6,30c2.9,0,5.6,0.5,8,1.4c2.4,0.9,4.4,2.2,6.1,4c1.7,1.7,3,3.8,3.9,6.3c0.9,2.5,1.4,5.2,1.4,8.3v3.2H63.2v-7.7H85
			c0-1.1-0.3-2.1-0.8-2.9c-0.5-0.9-1.3-1.5-2.2-2c-0.9-0.5-2-0.7-3.1-0.7c-1.1,0-2.2,0.2-3.1,0.7c-0.9,0.5-1.7,1.1-2.3,2
			c-0.6,0.8-0.9,1.8-0.9,3v8.3c0,1.2,0.3,2.4,0.8,3.3s1.3,1.7,2.3,2.3c1,0.6,2.2,0.8,3.5,0.8c1,0,1.8-0.1,2.6-0.4
			c0.8-0.3,1.5-0.7,2.1-1.2c0.6-0.5,1-1.1,1.3-1.9h12.7c-0.4,2.7-1.5,5-3.1,7c-1.6,2-3.8,3.5-6.5,4.6C85.6,69.5,82.5,70.1,78.9,70.1
			z"/>
    </g>
  </g>
</svg>
